<svg width="32" height="32" viewBox="0 0 32 32" fill="none" xmlns="http://www.w3.org/2000/svg">
  <defs>
    <linearGradient id="heartGradient" x1="0%" y1="0%" x2="100%" y2="100%">
      <stop offset="0%" style="stop-color:#ff6b6b;stop-opacity:1" />
      <stop offset="50%" style="stop-color:#ee5a52;stop-opacity:1" />
      <stop offset="100%" style="stop-color:#ff8a80;stop-opacity:1" />
    </linearGradient>
    <filter id="shadow" x="-20%" y="-20%" width="140%" height="140%">
      <feDropShadow dx="0" dy="2" stdDeviation="2" flood-color="#000000" flood-opacity="0.2"/>
    </filter>
  </defs>
  <path d="M16 28.5c-0.5 0-1-0.2-1.4-0.6C13.1 26.4 4 18.7 4 12c0-4.4 3.6-8 8-8 2.1 0 4.1 0.8 5.6 2.3C19.1 4.8 21.1 4 23.2 4c4.4 0 8 3.6 8 8 0 6.7-9.1 14.4-10.6 15.9-0.4 0.4-0.9 0.6-1.4 0.6z" 
        fill="url(#heartGradient)" 
        filter="url(#shadow)"
        stroke="#ffffff" 
        stroke-width="0.5"/>
</svg>